<?xml version="1.0" standalone="no"?>
<!DOCTYPE svg PUBLIC "-//W3C//DTD SVG 20010904//EN"
 "http://www.w3.org/TR/2001/REC-SVG-20010904/DTD/svg10.dtd">
<svg version="1.0" xmlns="http://www.w3.org/2000/svg"
 width="250.000000pt" height="125.000000pt" viewBox="0 0 250.000000 125.000000"
 preserveAspectRatio="xMidYMid meet">

<g transform="translate(0.000000,125.000000) scale(0.100000,-0.100000)"
fill="#fff" stroke="none">
<path d="M51 1214 l-23 -29 29 -5 28 -5 3 -188 2 -187 30 0 30 0 0 85 c0 49 4
85 10 85 5 0 35 -36 66 -81 31 -44 68 -85 81 -90 13 -5 76 -9 139 -9 l114 0 0
30 0 30 -70 0 -70 0 0 105 0 105 55 0 c54 0 55 0 55 30 0 30 -1 30 -55 30 -55
0 -55 0 -55 30 l0 31 73 -3 72 -3 51 -182 c27 -100 53 -185 56 -188 3 -3 15
32 28 77 27 98 36 111 45 70 10 -47 60 -109 106 -132 97 -50 196 -33 268 46
23 24 42 44 44 44 1 0 2 -26 2 -57 l0 -58 100 0 100 0 3 28 3 27 -75 0 -76 0
0 196 0 195 -27 -3 c-26 -3 -28 -7 -33 -58 l-5 -55 -23 32 c-12 17 -45 43 -74
57 -84 42 -166 33 -242 -27 -35 -27 -38 -28 -32 -8 3 11 9 30 12 41 4 17 1 20
-25 20 -27 0 -31 -4 -41 -42 -41 -158 -54 -198 -60 -186 -4 7 -20 61 -35 121
l-28 107 -124 0 -123 0 0 -60 c0 -33 -4 -60 -9 -60 -5 0 -18 17 -28 37 -30 61
-60 76 -161 81 -88 4 -89 4 -111 -24z m202 -66 c20 -24 22 -57 4 -82 -13 -17
-91 -39 -102 -28 -7 8 -6 128 2 135 12 13 78 -5 96 -25z m784 15 c39 -18 78
-71 88 -120 19 -95 -68 -193 -172 -193 -80 0 -163 85 -163 166 1 62 51 135
110 157 31 11 103 6 137 -10z m-677 -218 c0 -63 -3 -115 -7 -115 -6 1 -101
128 -111 150 -1 3 11 11 26 18 16 7 35 23 42 37 7 14 22 25 32 25 16 0 18 -10
18 -115z"/>
<path d="M835 1090 c3 -5 13 -10 21 -10 12 0 15 -13 13 -70 -1 -39 1 -73 4
-77 4 -3 7 28 7 70 0 62 3 77 15 77 12 0 15 -15 15 -75 0 -43 4 -75 10 -75 6
0 10 25 10 55 0 48 2 55 20 55 18 0 20 -7 20 -55 0 -70 18 -72 23 -2 l3 52 2
-52 2 -53 43 2 c36 1 38 2 10 5 -32 4 -33 6 -33 53 0 45 2 49 28 53 l27 4 -27
2 c-40 2 -37 31 2 31 17 0 30 5 30 10 0 6 -18 10 -39 10 -36 0 -40 -3 -44 -27
l-4 -28 -2 28 c-1 31 -21 28 -21 -4 0 -12 -7 -19 -20 -19 -15 0 -20 7 -20 25
0 23 -3 25 -51 25 -31 0 -48 -4 -44 -10z"/>
<path d="M1380 1057 c0 -174 1 -186 22 -212 47 -60 125 -66 177 -14 36 35 41
63 41 220 0 122 1 129 20 129 19 0 20 -8 22 -192 l3 -193 25 0 25 0 3 193 c2
160 5 192 17 192 12 0 15 -32 17 -192 l3 -192 25 0 c23 -1 25 3 28 56 l3 57
36 -40 c20 -22 49 -47 64 -54 102 -53 245 -9 299 93 l19 37 1 -78 0 -78 28 3
27 3 5 112 5 113 60 -115 c33 -63 62 -115 65 -115 3 0 4 101 2 225 l-3 225
-24 0 c-24 0 -24 0 -27 -117 l-3 -118 -65 120 -65 120 -5 -80 c-5 -79 -5 -79
-19 -48 -30 72 -115 123 -207 123 -55 0 -139 -43 -169 -88 l-25 -37 0 63 0 62
-125 0 -125 0 0 -175 c0 -166 -1 -175 -22 -195 -27 -25 -49 -25 -77 -2 -21 16
-22 26 -24 192 l-2 175 -27 3 -28 3 0 -184z m710 108 c80 -41 112 -148 69
-225 -59 -104 -197 -120 -272 -31 -93 111 -19 271 126 271 26 0 61 -7 77 -15z"/>
<path d="M228 747 c-221 -62 -292 -352 -125 -504 60 -54 116 -75 202 -74 l74
0 11 -34 c6 -18 30 -51 54 -73 80 -74 198 -78 281 -10 68 57 75 85 75 321 l0
207 -45 0 -45 0 0 -209 0 -209 -26 -31 c-14 -17 -41 -35 -61 -40 -69 -19 -125
9 -148 74 -13 37 -12 41 4 56 12 10 20 33 22 62 2 26 3 47 1 47 -2 0 -12 -5
-23 -10 -18 -10 -19 -6 -19 125 l0 135 -40 0 -40 0 0 -159 c0 -109 -4 -162
-11 -167 -24 -15 -114 -7 -154 14 -77 39 -115 104 -115 194 1 172 173 266 324
177 l36 -21 0 50 c0 49 -1 50 -40 66 -57 23 -137 28 -192 13z"/>
<path d="M840 475 l0 -285 125 0 125 0 0 40 0 40 -85 0 -85 0 0 245 0 245 -40
0 -40 0 0 -285z"/>
<path d="M990 720 l0 -40 50 -1 c28 -1 56 -2 63 -3 9 -1 13 -58 15 -243 l2
-243 45 0 45 0 0 246 0 245 63 -2 62 -3 0 40 0 39 -172 3 -173 2 0 -40z"/>
<path d="M1720 476 l0 -286 40 0 40 0 0 109 c0 61 4 112 9 116 5 3 46 -47 91
-110 l81 -115 49 0 c28 0 50 2 50 5 0 2 -37 54 -81 115 -45 61 -80 112 -78
114 2 1 21 12 41 25 63 37 94 128 67 198 -27 73 -77 99 -212 109 l-97 7 0
-287z m200 175 c21 -15 25 -26 25 -66 0 -59 -27 -83 -95 -87 l-45 -3 -3 79
c-2 44 0 86 3 93 7 19 80 9 115 -16z"/>
<path d="M2170 658 c-59 -31 -96 -80 -115 -156 -33 -127 16 -245 120 -293 53
-25 156 -25 211 0 42 19 117 98 108 113 -3 4 -23 17 -44 28 l-39 20 -38 -41
c-43 -45 -99 -60 -143 -37 -29 16 -70 73 -70 99 0 18 11 19 171 19 l172 0 -7
53 c-9 66 -49 151 -84 175 -68 48 -171 56 -242 20z m181 -107 c16 -16 29 -34
29 -40 0 -7 -37 -11 -105 -11 -68 0 -105 4 -105 11 0 6 13 24 29 40 24 24 38
29 76 29 38 0 52 -5 76 -29z"/>
<path d="M1252 368 c3 -206 4 -215 28 -258 78 -139 286 -141 367 -2 28 47 28
48 31 260 l3 212 -45 0 -45 0 -3 -209 c-3 -238 -8 -254 -85 -279 -50 -16 -107
1 -137 41 -19 26 -21 44 -24 238 l-3 209 -45 0 -45 0 3 -212z"/>
<path d="M1850 115 c-7 -8 -10 -22 -6 -30 7 -19 45 -19 52 0 6 15 -11 45 -26
45 -4 0 -13 -7 -20 -15z m38 -18 c2 -12 -3 -17 -17 -17 -12 0 -21 6 -21 13 0
31 32 34 38 4z"/>
<path d="M2059 128 c-7 -16 -5 -58 2 -58 6 0 7 5 4 10 -3 6 -2 10 2 10 5 0 9
9 9 20 0 16 -12 28 -17 18z"/>
<path d="M2270 100 c0 -16 4 -30 9 -30 6 0 8 10 6 22 -3 12 1 26 8 30 8 5 7 8
-5 8 -13 0 -18 -8 -18 -30z"/>
<path d="M2476 103 c9 -38 11 -39 16 -3 3 21 0 30 -9 30 -10 0 -11 -8 -7 -27z"/>
<path d="M1727 100 c-3 -13 -4 -26 -2 -29 3 -2 5 1 5 9 0 10 3 10 15 0 10 -9
15 -9 15 -1 0 6 -4 11 -9 11 -5 0 -11 8 -13 18 -3 13 -5 11 -11 -8z"/>
<path d="M1760 108 c0 -7 5 -20 10 -28 8 -12 10 -11 10 7 0 12 -4 25 -10 28
-5 3 -10 0 -10 -7z"/>
<path d="M1962 97 c6 -15 12 -26 13 -25 1 2 8 14 14 28 10 22 10 23 -1 8 -13
-15 -15 -15 -26 0 -9 13 -9 11 0 -11z"/>
<path d="M2148 97 c-4 -22 -3 -25 8 -16 11 9 14 8 14 -2 0 -11 2 -11 10 1 9
13 11 13 21 0 9 -13 10 -12 5 3 -3 10 -6 24 -6 30 0 7 -5 4 -11 -6 -10 -17
-11 -17 -23 -1 -12 16 -14 15 -18 -9z"/>
<path d="M2361 94 c1 -18 3 -22 6 -11 5 18 6 18 24 1 18 -16 19 -16 18 12 -1
18 -3 22 -6 11 -5 -18 -6 -18 -24 -1 -18 16 -19 16 -18 -12z"/>
</g>
</svg>
